<?xml version="1.0" encoding="UTF-8" standalone="no"?>
<svg
   xmlns:dc="http://purl.org/dc/elements/1.1/"
   xmlns:cc="http://creativecommons.org/ns#"
   xmlns:rdf="http://www.w3.org/1999/02/22-rdf-syntax-ns#"
   xmlns:svg="http://www.w3.org/2000/svg"
   xmlns="http://www.w3.org/2000/svg"
   width="400"
   height="240"
   viewBox="0 0 105.832 63.4992"
   version="1.1"
   id="svg144">
  <defs
     id="defs138" />
  <metadata
     id="metadata141">
    <rdf:RDF>
      <cc:Work
         rdf:about="">
        <dc:format>image/svg+xml</dc:format>
        <dc:type
           rdf:resource="http://purl.org/dc/dcmitype/StillImage" />
        <dc:title></dc:title>
      </cc:Work>
    </rdf:RDF>
  </metadata>
  <g
     id="layer1"
     transform="translate(0,-233.49705)">
    <path
       style="fill:#ffffff;fill-opacity:1;fill-rule:evenodd;stroke:none;stroke-width:0.07719159"
       d="M 206.64453 -0.001953125 L 199.65625 6.9882812 L 192.73633 0.068359375 L 159.38867 33.414062 L 166.30859 40.335938 L 159.39844 47.246094 L 192.70117 80.550781 L 199.61328 73.638672 L 206.63672 80.662109 L 239.98438 47.314453 L 233.05469 40.386719 L 199.72461 73.714844 L 166.33594 40.326172 L 199.72461 6.9375 L 233.02148 40.232422 L 239.94922 33.302734 L 206.64453 -0.001953125 z M 186.48633 24.275391 L 186.48633 33.419922 L 195.63086 33.419922 L 195.63086 24.275391 L 186.48633 24.275391 z M 203.82031 24.275391 L 203.82031 33.419922 L 212.96484 33.419922 L 212.96484 24.275391 L 203.82031 24.275391 z M 185.16211 44.585938 L 185.16211 50.556641 L 191.13281 50.556641 L 191.13281 44.585938 L 185.16211 44.585938 z M 208.31641 44.585938 L 208.31641 50.556641 L 214.28906 50.556641 L 214.28906 44.585938 L 208.31641 44.585938 z M 157.25391 49.308594 L 150.26562 56.296875 L 143.3457 49.376953 L 109.99805 82.724609 L 116.91797 89.644531 L 110.00781 96.556641 L 143.3125 129.85938 L 150.22266 122.94922 L 157.24609 129.97266 L 190.59375 96.625 L 183.66602 89.695312 L 150.33594 123.02539 L 116.94531 89.634766 L 150.33594 56.246094 L 183.63086 89.541016 L 190.56055 82.611328 L 157.25391 49.308594 z M 256.66211 49.880859 L 249.67383 56.871094 L 242.75195 49.951172 L 209.40625 83.296875 L 216.32617 90.216797 L 209.41406 97.128906 L 242.71875 130.43359 L 249.63086 123.52148 L 256.6543 130.54492 L 290.00195 97.197266 L 283.07227 90.269531 L 249.74219 123.59961 L 216.35352 90.208984 L 249.74219 56.818359 L 283.03711 90.113281 L 289.9668 83.185547 L 256.66211 49.880859 z M 191.17578 50.40625 L 191.17578 56.376953 L 208.02539 56.376953 L 208.02539 50.40625 L 191.17578 50.40625 z M 156.03125 71.269531 L 144.19531 90.326172 L 163.25391 102.16406 L 175.08984 83.105469 L 156.03125 71.269531 z M 240.00195 75.394531 L 240.00195 94.875 L 259.48242 94.875 L 259.48242 75.394531 L 240.00195 75.394531 z M 141.25586 75.746094 L 139.25977 94.691406 L 150.17383 95.841797 L 142.39453 91.009766 L 151.22266 76.796875 L 141.25586 75.746094 z M 139.4043 79.523438 L 130.89453 82.644531 L 136.59375 98.183594 L 142.26758 96.103516 L 137.70703 95.623047 L 139.4043 79.523438 z M 131.09375 86.773438 L 124.49609 92.755859 L 133.02148 102.16016 L 135.80859 99.632812 L 131.09375 86.773438 z M 240.39258 96.550781 L 240.39258 105.02344 L 248.86523 105.02344 L 248.86523 96.550781 L 240.39258 96.550781 z M 250.61914 96.550781 L 250.61914 105.02344 L 259.09375 105.02344 L 259.09375 96.550781 L 250.61914 96.550781 z M 14.792969 141.05273 C 12.088721 141.05273 9.7414837 141.97139 7.7519531 143.80664 C 5.7630273 145.64185 4.6574079 147.87927 4.4355469 150.51953 L 0.85351562 193.21289 C 0.62126073 195.98192 1.3712607 198.171 3.1035156 199.78125 C 4.8358461 201.39124 7.1180023 202.19531 9.9511719 202.19531 L 31.009766 202.19531 C 33.907453 202.19531 36.299173 201.32642 38.183594 199.58789 C 40.067939 197.84929 41.131973 195.5305 41.375 192.63281 L 43.423828 168.19531 L 23.042969 168.19531 L 22.46875 175.05273 L 29.421875 175.05273 L 27.712891 195.43359 L 14.189453 195.43359 L 18.185547 147.81445 L 38.277344 147.81445 L 37.677734 154.96289 L 44.535156 154.96289 L 45.021484 149.16602 C 45.221197 146.7833 44.532761 144.83519 42.953125 143.32227 C 41.373603 141.80858 39.392674 141.05273 37.009766 141.05273 L 14.792969 141.05273 z M 150.81445 141.05273 C 148.5605 141.05273 146.39618 141.88961 144.32422 143.56445 C 142.25146 145.2385 141.12219 147.20312 140.93359 149.45703 L 140.50195 154.57617 L 133.64453 154.57617 L 133.06836 161.43359 L 139.92773 161.43359 L 136.49023 202.38867 L 149.72266 202.38867 L 153.16016 161.43359 L 160.01953 161.43359 L 160.59375 154.57617 L 153.73633 154.57617 L 154.28711 148.00781 L 168.00391 148.00781 L 168.58594 141.05273 L 150.81445 141.05273 z M 175.18945 141.05273 L 170.05859 202.19531 L 183.77539 202.19531 L 186.05273 175.05273 L 199.57617 175.05273 L 197.29688 202.19531 L 210.33789 202.19531 L 215.56445 141.05273 L 202.42969 141.05273 L 200.15039 168.19531 L 186.62891 168.19531 L 188.90625 141.05273 L 175.18945 141.05273 z M 48.759766 154.57617 L 44.763672 202.19531 L 58.287109 202.19531 L 60.816406 172.05859 C 60.924313 170.77055 61.887128 169.25806 63.707031 167.51953 C 64.89926 166.36068 66.518834 165.1044 68.564453 163.75195 C 69.809634 162.72183 70.941057 162.07808 71.960938 161.82031 C 72.980591 161.56213 74.296227 161.43359 75.90625 161.43359 L 81.894531 161.43359 L 82.470703 154.57617 L 73.873047 154.57617 C 71.232938 154.57617 68.778354 155.25179 66.507812 156.60352 C 64.237308 157.95607 62.617622 159.7926 61.650391 162.11133 L 62.283203 154.57617 L 48.759766 154.57617 z M 91.878906 154.57617 L 83.847656 165.10352 L 94.375 165.10352 L 94.683594 161.43359 L 111.39453 161.43359 L 110.82617 168.19531 L 95.082031 168.19531 C 91.282764 168.19531 88.02921 169.75791 85.320312 172.88086 C 82.611378 176.00385 81.086633 179.59336 80.746094 183.65039 L 80.664062 184.61523 C 80.28002 189.18735 81.047273 193.29361 82.947266 196.93164 C 84.847258 200.57001 87.705229 202.38867 91.488281 202.38867 L 121.28711 202.38867 L 124.70703 161.62695 L 118.44141 154.57617 L 91.878906 154.57617 z M 232.14453 154.57617 C 230.21294 154.57617 228.65555 154.72183 227.47266 155.01172 C 226.28825 155.30089 225.18655 155.97647 224.16406 157.03906 C 223.14078 158.10245 222.47607 159.11582 222.16992 160.08203 C 221.86302 161.04745 221.6336 162.43148 221.48242 164.23438 L 219.12305 192.34375 C 218.88013 195.24144 219.69651 197.60804 221.57031 199.44336 C 223.44562 201.27865 225.7978 202.19531 228.63086 202.19531 L 246.88867 202.19531 C 250.23756 202.19531 253.03341 201.4872 255.27734 200.07031 C 257.86518 198.39615 259.29598 195.91696 259.57227 192.63281 L 261.95508 164.23438 C 262.19259 161.40128 261.55029 159.08291 260.02734 157.2793 C 258.5044 155.47648 256.35692 154.57617 253.58789 154.57617 L 232.14453 154.57617 z M 271.20703 154.57617 L 268.01367 192.63281 C 267.74298 195.85252 268.66452 198.30014 270.77734 199.97461 C 272.64959 201.45598 275.19586 202.19531 278.41602 202.19531 L 307.68359 202.19531 L 311.67969 154.57617 L 298.15625 154.57617 L 294.74414 195.24023 L 281.31836 195.24023 L 284.73047 154.57617 L 271.20703 154.57617 z M 329.20117 154.57617 C 326.11054 154.57617 323.70873 155.1872 321.99609 156.41016 C 319.80073 158.02022 318.54537 160.69253 318.23242 164.42773 L 318.05273 166.55273 C 317.92344 168.09828 318.04782 169.5001 318.42578 170.75586 C 318.78745 172.01106 319.45415 173.08843 320.39258 173.99023 L 336.76367 188.76953 L 336.2207 195.24023 L 322.79492 195.24023 L 323.36133 188.48047 L 316.50391 188.48047 L 315.97656 194.75781 C 315.79306 196.94728 316.73378 198.78234 318.79883 200.26367 C 320.62247 201.55107 322.66127 202.19531 324.91602 202.19531 L 339.98438 202.19531 C 342.62464 202.19531 344.9267 201.40591 346.89453 199.82812 C 348.86244 198.25038 349.95997 196.11054 350.1875 193.40625 L 350.27734 192.34375 C 350.18663 190.34734 350.13023 188.31908 350.11133 186.25781 C 349.82756 184.26174 349.02641 182.68451 347.70703 181.52539 L 331.73633 168.09961 L 332.29492 161.43359 L 345.5293 161.43359 L 344.94531 168.38867 L 351.99609 168.38867 L 352.38672 163.75195 C 352.62419 160.91897 351.959 158.68151 350.39062 157.03906 C 348.82138 155.39661 346.68472 154.57617 343.98047 154.57617 L 329.20117 154.57617 z M 370.19531 154.57617 C 367.16795 154.57617 364.68343 155.41301 362.74023 157.08789 C 360.79625 158.76194 359.69483 161.14295 359.43555 164.23438 L 357.07617 192.34375 C 356.8271 195.30531 357.37224 197.65593 358.70703 199.39453 C 359.76342 200.6184 360.88752 201.42236 362.07812 201.80859 C 363.26873 202.19498 364.82926 202.38867 366.76172 202.38867 L 386.37109 202.38867 C 389.01139 202.38867 391.38197 201.74469 393.48633 200.45703 C 395.8644 198.97597 397.16057 196.97994 397.37109 194.46875 L 397.87305 188.48047 L 391.01562 188.48047 L 390.44727 195.24023 L 370.45312 195.24023 L 371.57031 181.91211 L 398.42383 181.91211 L 399.96484 163.55859 C 400.17533 161.04669 399.51539 158.92246 397.98633 157.18359 C 396.45798 155.44472 394.47214 154.57617 392.02539 154.57617 L 370.19531 154.57617 z M 235.24023 161.43359 L 248.66602 161.43359 L 245.83008 195.24023 L 232.40234 195.24023 L 235.24023 161.43359 z M 373.28906 161.43359 L 386.61914 161.43359 L 385.47656 175.05273 L 372.14648 175.05273 L 373.28906 161.43359 z M 96.623047 175.15039 L 110.24414 175.15039 L 108.55664 195.24023 L 94.9375 195.24023 L 96.623047 175.15039 z M 221.05273 207.03906 L 218.09375 209.59961 L 217.88672 212.19531 L 220.64062 212.19531 L 223.60352 209.59961 L 223.80859 207.03906 L 221.05273 207.03906 z M 182.02734 209.52734 C 180.94166 209.52734 180.00287 209.86968 179.21094 210.55469 C 178.419 211.23996 177.98487 212.07536 177.90625 213.06055 L 176.63281 229.00195 C 176.5503 230.03665 176.85891 230.85198 177.56055 231.45312 C 178.26226 232.05427 179.18296 232.35547 180.32031 232.35547 L 188.77734 232.35547 C 189.941 232.35547 190.89732 232.0303 191.64844 231.38086 C 192.39793 230.73172 192.81617 229.8668 192.90234 228.78516 L 193.63086 219.66211 L 185.44727 219.66211 L 185.24219 222.2207 L 188.03516 222.2207 L 187.42773 229.83203 L 181.99609 229.83203 L 183.41602 212.05078 L 191.48438 212.05078 L 191.27148 214.7207 L 194.02539 214.7207 L 194.19727 212.55664 C 194.26817 211.66689 193.98378 210.93843 193.34375 210.37305 C 192.70372 209.80838 191.90621 209.52734 190.94922 209.52734 L 182.02734 209.52734 z M 238.07617 209.52734 C 237.17009 209.52734 236.30634 209.83985 235.48047 210.46484 C 234.65463 211.08991 234.2079 211.82277 234.14062 212.66406 L 233.98828 214.57617 L 231.23438 214.57617 L 231.0293 217.13672 L 233.78516 217.13672 L 232.56445 232.42773 L 237.87695 232.42773 L 239.09766 217.13672 L 241.85156 217.13672 L 242.05664 214.57617 L 239.30273 214.57617 L 239.49805 212.12305 L 245.00586 212.12305 L 245.21484 209.52734 L 238.07617 209.52734 z M 247.19141 209.52734 L 246.97852 212.19531 L 252.4082 212.19531 L 252.62305 209.52734 L 247.19141 209.52734 z M 299.86719 209.52734 L 298.00586 232.35547 L 310.22461 232.35547 C 310.92171 232.35547 311.52143 232.29049 312.02344 232.1582 C 312.52468 232.0266 312.99122 231.76742 313.42383 231.38281 C 313.85489 230.99817 314.14645 230.58905 314.29688 230.15625 C 314.44806 229.72364 314.55142 229.16958 314.60547 228.49609 L 315.85742 212.80859 C 315.93838 211.79862 315.63351 210.99935 314.94336 210.41016 C 314.25325 209.82043 313.37785 209.52734 312.31836 209.52734 L 299.86719 209.52734 z M 318.52344 209.52734 L 318.31055 212.19531 L 323.74219 212.19531 L 323.95312 209.52734 L 318.52344 209.52734 z M 345.52148 209.52734 L 345.30859 212.19531 L 350.73828 212.19531 L 350.95117 209.52734 L 345.52148 209.52734 z M 356.22656 209.52734 L 355.82227 214.57617 L 353.06836 214.57617 L 352.86523 217.13672 L 355.61914 217.13672 L 354.66602 229.07422 C 354.58506 230.08389 354.87706 230.88376 355.54102 231.47266 C 356.20494 232.06201 357.07954 232.35547 358.16602 232.35547 L 362.50977 232.35547 L 362.7168 229.75977 L 360.00195 229.75977 L 361.00977 217.13672 L 363.72461 217.13672 L 363.92969 214.57617 L 361.21484 214.57617 L 361.61719 209.52734 L 356.22656 209.52734 z M 386.63672 209.52734 L 384.81445 232.35547 L 390.2832 232.35547 L 392.10547 209.52734 L 386.63672 209.52734 z M 305.12891 212.12305 L 310.48242 212.12305 L 309.07227 229.75977 L 303.7207 229.75977 L 305.12891 212.12305 z M 196.55859 214.57617 L 195.13672 232.35547 L 200.56836 232.35547 L 201.4668 221.10352 C 201.50535 220.62249 201.88724 220.05731 202.61133 219.4082 C 203.08555 218.97567 203.73105 218.50679 204.54688 218.00195 C 205.04347 217.61689 205.49362 217.37687 205.90234 217.28125 C 206.31103 217.18449 206.83938 217.13672 207.48633 217.13672 L 209.89062 217.13672 L 210.0957 214.57617 L 206.64258 214.57617 C 205.58226 214.57617 204.60099 214.8285 203.69336 215.33398 C 202.78732 215.83852 202.14382 216.52326 201.76367 217.38867 L 201.98828 214.57617 L 196.55859 214.57617 z M 215.13867 214.57617 L 211.95508 218.50781 L 216.18359 218.50781 L 216.29297 217.13672 L 223.00195 217.13672 L 222.80078 219.66211 L 216.47852 219.66211 C 214.95327 219.66211 213.65263 220.24389 212.57617 221.41016 C 211.50047 222.57582 210.90257 223.91739 210.78125 225.43164 L 210.75195 225.79102 C 210.61543 227.49821 210.93837 229.03175 211.71484 230.39062 C 212.49211 231.74874 213.64693 232.42773 215.16602 232.42773 L 227.13281 232.42773 L 228.34766 217.20898 L 225.80469 214.57617 L 215.13867 214.57617 z M 246.78906 214.57617 L 245.36914 232.35547 L 250.79883 232.35547 L 252.21875 214.57617 L 246.78906 214.57617 z M 258.92969 214.57617 C 257.68817 214.57617 256.67801 214.92376 255.89844 215.62109 C 255.11886 216.31809 254.68251 217.23315 254.5918 218.36328 L 253.74609 228.9668 C 253.65739 230.07225 253.9707 230.91317 254.68164 231.49023 C 255.39186 232.0673 256.35142 232.35547 257.56055 232.35547 L 262.9668 232.35547 C 264.04636 232.35547 265.01963 232.05603 265.88867 231.45508 C 266.75847 230.85394 267.23388 230.06039 267.3125 229.07422 L 267.46094 227.23438 L 264.62891 227.23438 L 264.42773 229.75977 L 259.15234 229.75977 L 260.1543 217.20898 L 265.42969 217.20898 L 265.22266 219.80469 L 268.05469 219.80469 L 268.20898 217.85742 C 268.29769 216.75137 268.0012 215.92742 267.32031 215.38672 C 266.63942 214.84586 265.70468 214.57617 264.51562 214.57617 L 258.92969 214.57617 z M 274.44727 214.57617 L 271.26172 218.50781 L 275.49023 218.50781 L 275.59961 217.13672 L 282.31055 217.13672 L 282.10938 219.66211 L 275.78516 219.66211 C 274.25987 219.66211 272.95971 220.24389 271.88477 221.41016 C 270.80906 222.57582 270.21117 223.91739 270.08984 225.43164 L 270.05859 225.79297 C 269.92211 227.50017 270.24617 229.03175 271.02344 230.39062 C 271.80074 231.74874 272.95552 232.42773 274.47461 232.42773 L 286.43945 232.42773 L 287.65625 217.20898 L 285.11133 214.57617 L 274.44727 214.57617 z M 318.12109 214.57617 L 316.70117 232.35547 L 322.13086 232.35547 L 323.55078 214.57617 L 318.12109 214.57617 z M 330.14453 214.57617 C 328.95548 214.57617 327.96416 214.85266 327.16992 215.40625 C 326.37493 215.95898 325.93383 216.77548 325.84766 217.85742 L 324.92773 229.39844 C 324.87225 230.09543 325.27223 230.74509 326.12891 231.3457 C 326.88769 231.8745 327.66879 232.13867 328.4707 232.13867 L 335.70703 232.35547 L 335.30469 237.4043 L 327.23633 237.4043 L 327.44141 234.84375 L 324.68555 234.84375 L 324.53711 236.71875 C 324.46617 237.60824 324.80516 238.37824 325.55469 239.02734 C 326.30493 239.67611 327.15828 240.00195 328.11523 240.00195 L 336.57227 240.00195 C 337.76056 240.00195 338.74377 239.67615 339.51953 239.02734 C 340.29446 238.37824 340.72677 237.50062 340.81445 236.39453 L 342.55664 214.57617 L 330.14453 214.57617 z M 345.11719 214.57617 L 343.69727 232.35547 L 349.12891 232.35547 L 350.54883 214.57617 L 345.11719 214.57617 z M 369.71094 214.57617 L 366.52734 218.50781 L 370.75391 218.50781 L 370.86328 217.13672 L 377.57422 217.13672 L 377.37305 219.66211 L 371.05078 219.66211 C 369.52553 219.66211 368.2241 220.24389 367.14844 221.41016 C 366.07269 222.57582 365.47484 223.91739 365.35352 225.43164 L 365.32227 225.79297 C 365.18579 227.50017 365.50984 229.03175 366.28711 230.39062 C 367.06442 231.74874 368.21923 232.42773 369.73828 232.42773 L 381.70508 232.42773 L 382.91992 217.20898 L 380.37695 214.57617 L 369.71094 214.57617 z M 1.6992188 215.9082 L -0.001953125 224.23047 L 160.49414 224.23047 L 162.19531 215.9082 L 1.6992188 215.9082 z M 331.56836 217.13672 L 336.92188 217.13672 L 335.91406 229.75977 L 330.5625 229.75977 L 331.56836 217.13672 z M 217.12305 222.25781 L 222.5918 222.25781 L 221.99414 229.75977 L 216.52344 229.75977 L 217.12305 222.25781 z M 276.42969 222.25781 L 281.90039 222.25781 L 281.30078 229.75977 L 275.83203 229.75977 L 276.42969 222.25781 z M 371.69531 222.25781 L 377.16406 222.25781 L 376.56641 229.75977 L 371.0957 229.75977 L 371.69531 222.25781 z "
       transform="matrix(0.26458,0,0,0.26458,0,233.49705)"
       id="path33" />
  </g>
</svg>
